<?xml version="1.0" standalone="no"?>
<!DOCTYPE svg PUBLIC "-//W3C//DTD SVG 20010904//EN"
 "http://www.w3.org/TR/2001/REC-SVG-20010904/DTD/svg10.dtd">
<svg version="1.0" xmlns="http://www.w3.org/2000/svg"
 width="202.000000pt" height="36.000000pt" viewBox="0 0 202.000000 36.000000"
 preserveAspectRatio="xMidYMid meet">

<g transform="translate(0.000000,36.000000) scale(0.100000,-0.100000)"
fill="#000000" stroke="none">
<path d="M0 180 l0 -180 1010 0 1010 0 0 180 0 180 -1010 0 -1010 0 0 -180z
m128 58 c7 -7 12 -22 12 -35 0 -18 -7 -25 -30 -29 -23 -5 -30 -12 -30 -30 0
-15 -6 -24 -15 -24 -12 0 -15 14 -15 65 l0 65 33 0 c18 0 38 -5 45 -12z m109
-4 c2 -7 -6 -10 -22 -7 -33 7 -34 -22 -1 -31 29 -7 43 -41 25 -62 -14 -18 -70
-15 -77 3 -2 9 5 11 27 7 39 -8 43 17 6 34 -32 15 -41 37 -24 58 14 17 60 15
66 -2z m231 -2 c3 -9 -3 -11 -21 -7 -20 5 -27 2 -32 -15 -4 -12 -4 -33 0 -47
5 -21 10 -24 31 -19 19 5 25 3 22 -6 -8 -24 -55 -21 -72 4 -32 46 -6 112 42
106 14 -2 27 -9 30 -16z m182 -44 c29 -62 39 -102 21 -82 -17 18 -70 144 -60
144 5 0 23 -28 39 -62z m92 12 c4 -65 22 -65 26 0 2 36 7 50 18 50 18 0 20
-100 2 -118 -15 -15 -51 -15 -66 0 -18 18 -16 118 2 118 11 0 16 -14 18 -50z
m568 -12 c29 -62 39 -102 21 -82 -17 18 -70 144 -60 144 5 0 23 -28 39 -62z
m134 46 c9 -8 16 -31 16 -49 0 -41 -22 -65 -61 -65 l-29 0 0 65 0 65 29 0 c16
0 37 -7 45 -16z m-894 -29 c0 -8 -7 -15 -15 -15 -8 0 -15 7 -15 15 0 8 7 15
15 15 8 0 15 -7 15 -15z m347 -1 c2 -7 -6 -10 -22 -7 -33 7 -33 -13 1 -21 19
-5 25 -12 22 -29 -2 -17 -11 -23 -35 -25 -23 -2 -33 1 -33 11 0 10 8 13 25 9
15 -2 25 0 25 7 0 6 -6 11 -14 11 -8 0 -22 7 -31 16 -12 13 -13 19 -4 31 14
16 61 14 66 -3z m111 4 c7 -7 12 -20 12 -30 0 -14 -8 -18 -36 -18 -22 0 -33
-4 -29 -11 4 -5 18 -9 30 -7 13 2 24 -1 25 -7 1 -15 -49 -18 -66 -4 -17 14
-19 60 -2 77 7 7 21 12 33 12 12 0 26 -5 33 -12z m122 -2 c0 -7 -10 -12 -22
-12 -19 1 -23 -5 -26 -36 -2 -25 -8 -38 -18 -38 -10 0 -14 13 -14 49 l0 49 40
0 c26 1 40 -4 40 -12z m97 -2 c2 -7 -6 -10 -22 -7 -33 7 -33 -13 1 -21 19 -5
25 -12 22 -29 -2 -17 -11 -23 -35 -25 -23 -2 -33 1 -33 11 0 10 8 13 25 9 15
-2 25 0 25 7 0 6 -6 11 -14 11 -8 0 -22 7 -31 16 -12 13 -13 19 -4 31 14 16
61 14 66 -3z m331 4 c7 -7 12 -29 12 -49 l0 -38 -42 2 c-41 2 -43 4 -43 32 0
25 5 31 30 36 l30 7 -27 1 c-16 0 -28 6 -28 11 0 14 54 12 68 -2z m68 -29 l11
-34 8 38 c4 21 13 37 21 37 17 0 17 3 -2 -53 -24 -70 -48 -60 -70 30 -10 39
17 24 32 -18z m152 29 c7 -7 12 -20 12 -30 0 -14 -8 -18 -36 -18 -22 0 -33 -4
-29 -11 4 -5 18 -9 30 -7 13 2 24 -1 25 -7 1 -15 -49 -18 -66 -4 -17 14 -19
60 -2 77 7 7 21 12 33 12 12 0 26 -5 33 -12z m95 -10 c39 -14 33 -31 -18 -50
-51 -19 -62 -5 -13 15 l33 13 -33 12 c-17 6 -32 16 -32 23 0 7 7 8 18 4 9 -4
29 -12 45 -17z m-1323 -63 c0 -8 -7 -15 -15 -15 -8 0 -15 7 -15 15 0 8 7 15
15 15 8 0 15 -7 15 -15z"/>
<path d="M80 210 c0 -11 7 -20 15 -20 8 0 15 9 15 20 0 11 -7 20 -15 20 -8 0
-15 -9 -15 -20z"/>
<path d="M1400 185 c0 -33 4 -45 13 -43 7 3 12 21 12 43 0 22 -5 40 -12 43 -9
2 -13 -10 -13 -43z"/>
<path d="M955 190 c-3 -5 3 -10 14 -10 12 0 21 5 21 10 0 6 -6 10 -14 10 -8 0
-18 -4 -21 -10z"/>
<path d="M1510 154 c0 -17 22 -14 28 4 2 7 -3 12 -12 12 -9 0 -16 -7 -16 -16z"/>
<path d="M1725 190 c-3 -5 3 -10 14 -10 12 0 21 5 21 10 0 6 -6 10 -14 10 -8
0 -18 -4 -21 -10z"/>
</g>
</svg>
